<svg width="64" height="64" viewBox="0 0 64 64" fill="none" xmlns="http://www.w3.org/2000/svg">
<path d="M31.9813 63.9597C49.6178 63.9597 63.9626 49.6149 63.9626 31.9813C63.9626 14.3448 49.6178 0 31.9813 0C14.3449 0 4.57764e-05 14.3448 4.57764e-05 31.9813C0.00289917 49.6149 14.3477 63.9597 31.9813 63.9597ZM31.9813 0.579041C49.2955 0.579041 63.3836 14.6671 63.3836 31.9813C63.3836 49.2955 49.2984 63.3807 31.9842 63.3807C14.67 63.3807 0.581944 49.2955 0.581944 31.9813C0.581944 14.6671 14.6672 0.579041 31.9813 0.579041Z" fill="#303030"/>
<path d="M18.7951 43.5761L33.9904 44.9252C34.0035 43.6997 34.0877 39.4525 34.6952 37.5196C35.3868 35.3132 41.6643 36.1153 43.2606 36.3572C44.1548 31.8602 45.6722 29.012 45.7379 28.8911C45.8168 28.7438 46.0009 28.6886 46.1482 28.7675C46.2954 28.8464 46.3507 29.0304 46.2718 29.1777C46.256 29.2066 44.6676 32.1942 43.7997 36.7569C43.7682 36.9174 43.613 37.0252 43.4526 36.9989C40.5256 36.515 35.7182 36.2757 35.2738 37.6984C34.6032 39.8339 34.5953 45.2014 34.5953 45.254C34.5953 45.3381 34.5584 45.4197 34.498 45.4775C34.4427 45.5275 34.3691 45.5564 34.2928 45.5564C34.2849 45.5564 34.2744 45.5564 34.2665 45.5564L18.7452 44.1784C18.5795 44.1626 18.4559 44.0153 18.4717 43.8496C18.4796 43.684 18.6295 43.563 18.7951 43.5761Z" fill="#303030"/>
<path d="M15.8682 36.131C16.0944 35.7445 16.4626 35.5051 16.9649 35.4184C18.5454 35.1449 27.9524 36.1705 29.7275 36.3677C29.8406 35.7708 30.0615 34.2454 29.6749 32.8911C29.2726 31.4815 28.4336 28.5492 30.8268 27.8049C31.9471 27.4552 33.1989 27.6182 34.6453 27.8049C35.8182 27.9575 37.1489 28.1284 38.6401 28.0522C39.4159 28.0127 40.0628 27.9838 40.6493 27.9575C42.5585 27.8733 43.8235 27.8181 46.7531 27.4736C47.3449 27.2948 47.9865 27.4184 48.4704 27.8102C48.9648 28.2099 49.2252 28.8227 49.1647 29.4565L47.2791 49.6563C47.2686 49.7852 47.1765 49.8904 47.0529 49.922L46.9793 49.9404V50.4663C46.9793 50.5768 46.9057 50.6741 46.7979 50.703L45.2962 51.0949C45.141 51.1343 44.9911 51.0186 44.9911 50.8582V50.44L38.456 52.0837V52.6281C38.456 52.7385 38.385 52.8358 38.2771 52.87L36.2075 53.5091C36.168 53.5222 36.1259 53.5249 36.0865 53.517L34.5217 53.225C34.4034 53.204 34.3166 53.0988 34.3166 52.9778V52.4545L18.4113 50.6978V50.9818C18.4113 51.1054 18.3035 51.2027 18.1799 51.1896L16.836 51.0318C16.7308 51.0186 16.6519 50.9292 16.6519 50.824V50.4874C16.5388 50.4427 16.4573 50.3375 16.4573 50.2086V39.5183L15.8446 38.3533C15.8367 38.3401 15.8314 38.327 15.8261 38.3138C15.8025 38.2612 15.3659 36.991 15.8682 36.131ZM16.3863 38.0955L17.0227 39.3079C17.0464 39.3526 17.0569 39.3999 17.0569 39.4499V49.9456L35.8472 52.0206L36.189 39.6366C36.1943 39.4683 36.3337 39.3342 36.4994 39.3421C36.6677 39.3473 36.7992 39.4867 36.7939 39.6524L36.4547 51.9654L46.6953 49.3907L48.5625 29.4039C48.6019 28.9752 48.4257 28.5571 48.0891 28.2862C47.7525 28.0153 47.3238 27.9338 46.9057 28.0653C46.8873 28.0706 46.8689 28.0758 46.8478 28.0784C43.8761 28.4282 42.6006 28.4834 40.6729 28.5702C40.0891 28.5965 39.4422 28.6255 38.669 28.6649C37.1226 28.7438 35.763 28.5702 34.5638 28.4151C33.1858 28.2362 31.9971 28.0837 31.003 28.394C29.3962 28.8937 29.6933 30.7767 30.2535 32.7359C30.7873 34.6084 30.2772 36.6965 30.2561 36.7832C30.2193 36.9305 30.0825 37.0278 29.9274 37.0094C26.0457 36.5702 18.3639 35.7971 17.0622 36.0232C16.7413 36.0784 16.5204 36.2178 16.3863 36.444C16.097 36.9358 16.2837 37.7826 16.3863 38.0955Z" fill="#303030"/>
<path d="M20.6255 34.8792C20.7939 34.8792 20.928 34.7425 20.928 34.5768V21.8115C20.928 21.6432 20.7912 21.5091 20.6255 21.5091C20.4572 21.5091 20.3231 21.6458 20.3231 21.8115V34.5768C20.3231 34.7451 20.4599 34.8792 20.6255 34.8792Z" fill="#303030"/>
<path d="M15.0923 21.162H26.1614C26.2587 21.162 26.3507 21.1146 26.4086 21.0331C26.4664 20.9542 26.4796 20.8516 26.448 20.757L22.903 10.6399C22.8609 10.519 22.7452 10.4374 22.6163 10.4374H18.6374C18.5085 10.4374 18.3954 10.519 18.3507 10.6399L14.8057 20.757C14.7741 20.849 14.7873 20.9516 14.8451 21.0331C14.903 21.1146 14.995 21.162 15.0923 21.162Z" fill="#303030"/>
<path d="M19.2554 23.7787C19.4237 23.7787 19.5579 23.6419 19.5579 23.4762V21.8115C19.5579 21.6432 19.4211 21.5091 19.2554 21.5091C19.0871 21.5091 18.953 21.6458 18.953 21.8115V23.4762C18.953 23.6419 19.0871 23.7787 19.2554 23.7787Z" fill="#303030"/>
<path d="M23.0923 23.3579C23.9444 23.3579 24.6387 22.6636 24.6387 21.8115C24.6387 21.6432 24.5019 21.5091 24.3362 21.5091C24.1679 21.5091 24.0338 21.6458 24.0338 21.8115C24.0338 22.3296 23.6104 22.753 23.0923 22.753C22.5742 22.753 22.1508 22.3296 22.1508 21.8115C22.1508 21.6432 22.0141 21.5091 21.8484 21.5091C21.6801 21.5091 21.546 21.6458 21.546 21.8115C21.546 22.6636 22.2403 23.3579 23.0923 23.3579Z" fill="#303030"/>
</svg>
