<svg width="24" height="24" viewBox="0 0 24 24" fill="none" xmlns="http://www.w3.org/2000/svg">
<path d="M5.88184 2.75H18.1846C18.8151 2.75 19.2497 3.23309 19.25 3.69727V20.8643C19.2499 21.1033 19.182 21.1883 19.1631 21.208C19.1413 21.2307 19.1059 21.2499 19.0469 21.25C18.9835 21.25 18.8609 21.2252 18.666 21.0684H18.665L13.1787 16.6611H13.1797C12.8546 16.3995 12.4363 16.2803 12.041 16.2803C11.6463 16.2804 11.2273 16.3993 10.9023 16.6611L5.40039 21.0674L5.39844 21.0693C5.21691 21.2156 5.07317 21.25 4.99707 21.25L4.94238 21.2441C4.89367 21.2329 4.85984 21.2072 4.84082 21.1816C4.79377 21.1179 4.75008 21.0187 4.75 20.8643V3.69727C4.75034 3.26642 5.21496 2.75 5.88184 2.75Z" stroke="#999999" stroke-width="1.5"/>
</svg>
